<svg width="17" height="12" viewBox="0 0 17 12" fill="none" xmlns="http://www.w3.org/2000/svg">
<path d="M1.70811 6.99981L13.2981 6.99981L10.9981 9.28981C10.9049 9.38305 10.8309 9.49374 10.7805 9.61556C10.73 9.73739 10.704 9.86795 10.704 9.99981C10.704 10.1317 10.73 10.2622 10.7805 10.3841C10.8309 10.5059 10.9049 10.6166 10.9981 10.7098C11.0913 10.8031 11.202 10.877 11.3239 10.9275C11.4457 10.9779 11.5763 11.0039 11.7081 11.0039C11.84 11.0039 11.9705 10.9779 12.0924 10.9275C12.2142 10.877 12.3249 10.8031 12.4181 10.7098L16.4181 6.70981C16.5092 6.61471 16.5805 6.50257 16.6281 6.37981C16.7281 6.13635 16.7281 5.86328 16.6281 5.61981C16.5805 5.49706 16.5092 5.38492 16.4181 5.28981L12.4181 1.28982C12.3251 1.19609 12.2145 1.12169 12.0927 1.07092C11.9708 1.02015 11.8401 0.994016 11.7081 0.994016C11.5761 0.994016 11.4454 1.02015 11.3235 1.07092C11.2017 1.12169 11.0911 1.19609 10.9981 1.28982C10.9044 1.38278 10.83 1.49338 10.7792 1.61524C10.7285 1.7371 10.7023 1.8678 10.7023 1.99981C10.7023 2.13183 10.7285 2.26253 10.7792 2.38439C10.83 2.50625 10.9044 2.61685 10.9981 2.70981L13.2981 4.99981L1.70811 4.99981C1.4429 4.99981 1.18854 5.10517 1.001 5.29271C0.813468 5.48024 0.708112 5.7346 0.708112 5.99981C0.708112 6.26503 0.813468 6.51938 1.001 6.70692C1.18854 6.89446 1.4429 6.99981 1.70811 6.99981Z" fill="#84878B"/>
</svg>
