<svg width="8" height="14" viewBox="0 0 8 14" fill="none" xmlns="http://www.w3.org/2000/svg">
<path d="M3.09391 6.97062L7.62758 2.26667C7.86611 2.0177 8 1.68091 8 1.32986C8 0.978811 7.86611 0.642024 7.62758 0.393057C7.50852 0.268511 7.36688 0.169655 7.21081 0.102194C7.05475 0.0347322 6.88735 0 6.71829 0C6.54922 0 6.38182 0.0347322 6.22576 0.102194C6.06969 0.169655 5.92805 0.268511 5.80899 0.393057L0.378828 6.02717C0.258791 6.1507 0.163514 6.29767 0.0984949 6.45959C0.0334755 6.62152 0 6.7952 0 6.97062C0 7.14604 0.0334755 7.31972 0.0984949 7.48165C0.163514 7.64357 0.258791 7.79054 0.378828 7.91407L5.80899 13.6146C5.92866 13.7378 6.07058 13.8352 6.22662 13.9013C6.38266 13.9675 6.54974 14.001 6.71829 14C6.88684 14.001 7.05392 13.9675 7.20995 13.9013C7.36599 13.8352 7.50791 13.7378 7.62758 13.6146C7.86611 13.3657 8 13.0289 8 12.6778C8 12.3268 7.86611 11.99 7.62758 11.741L3.09391 6.97062Z" fill="#84878B"/>
</svg>
