<svg width="25" height="25" viewBox="0 0 25 25" fill="none" xmlns="http://www.w3.org/2000/svg">
<path fill-rule="evenodd" clip-rule="evenodd" d="M17.4518 17.6499H8.45174V11.1498C8.45174 8.64977 10.4518 6.64975 12.9518 6.64975C15.4518 6.64975 17.4518 8.64977 17.4518 11.1498V17.6499ZM19.4513 16.6506V11.1505C19.4513 8.08045 17.3113 5.51042 14.4513 4.83042V4.15041C14.4513 3.32197 13.7797 2.65039 12.9513 2.65039C12.1228 2.65039 11.4513 3.32197 11.4513 4.15041V4.83042C8.58122 5.51042 6.45119 8.08045 6.45119 11.1505V16.6506L4.45117 18.6506V19.6506H21.4514V18.6506L19.4513 16.6506ZM12.9515 22.6504C14.0561 22.6504 14.9515 21.755 14.9515 20.6504H10.9515C10.9515 21.755 11.8469 22.6504 12.9515 22.6504Z" fill="#3B3E44"/>
</svg>
