<svg width="18" height="16" viewBox="0 0 18 16" fill="none" xmlns="http://www.w3.org/2000/svg">
<path fill-rule="evenodd" clip-rule="evenodd" d="M11.6995 8.8105V13.3324C11.6995 13.669 11.5069 13.9768 11.2021 14.1274L7.60276 15.905C7.00446 16.2005 6.30051 15.7708 6.30051 15.11V8.8105L0.205106 1.45166C-0.275597 0.871322 0.142416 0 0.901536 0H17.0985C17.8576 0 18.2756 0.871322 17.7949 1.45166L11.6995 8.8105ZM9.89979 12.7813V8.49145C9.89979 8.28627 9.97166 8.08741 10.1032 7.92861L15.1996 1.77588H2.80036L7.89673 7.92861C8.02827 8.08741 8.10013 8.28627 8.10013 8.49145V13.6701L9.89979 12.7813Z" fill="#B1B5C4"/>
</svg>
