<svg width="16" height="17" viewBox="0 0 16 17" fill="none" xmlns="http://www.w3.org/2000/svg">
<path d="M4.3941 3.70043C4.15708 3.70043 3.92539 3.77082 3.72831 3.9027C3.53124 4.03457 3.37764 4.22201 3.28694 4.44131C3.19623 4.66061 3.1725 4.90192 3.21874 5.13473C3.26498 5.36754 3.37912 5.58139 3.54671 5.74923C3.71431 5.91708 3.92784 6.03138 4.16031 6.07769C4.39277 6.124 4.63373 6.10023 4.8527 6.00939C5.07168 5.91855 5.25884 5.76473 5.39052 5.56736C5.52221 5.37 5.59249 5.13796 5.59249 4.90059C5.59249 4.58229 5.46623 4.27702 5.24149 4.05195C5.01675 3.82688 4.71193 3.70043 4.3941 3.70043ZM15.2755 7.46893L8.5565 0.732044C8.48185 0.657889 8.39332 0.599221 8.29598 0.559404C8.19864 0.519587 8.09441 0.499405 7.98926 0.500013H0.798938C0.58705 0.500013 0.383841 0.58431 0.234013 0.734359C0.0841855 0.884407 1.33535e-05 1.08792 1.33535e-05 1.30012V8.50106C-0.000594543 8.60636 0.0195584 8.71075 0.0593166 8.80823C0.0990748 8.90571 0.157656 8.99438 0.231702 9.06914L6.95865 15.798C7.40805 16.2475 8.01723 16.5 8.65237 16.5C9.28752 16.5 9.8967 16.2475 10.3461 15.798L15.2755 10.9014C15.7243 10.4513 15.9764 9.84124 15.9764 9.20516C15.9764 8.56907 15.7243 7.95899 15.2755 7.50893V7.46893ZM14.149 9.72522L9.21162 14.6619C9.06193 14.8109 8.85944 14.8945 8.64838 14.8945C8.43731 14.8945 8.23482 14.8109 8.08514 14.6619L1.59786 8.17302V2.10022H7.66171L14.149 8.59708C14.223 8.67184 14.2816 8.7605 14.3214 8.85798C14.3611 8.95547 14.3813 9.05985 14.3807 9.16515C14.3798 9.37505 14.2966 9.57619 14.149 9.72522Z" fill="#777E90"/>
</svg>
