<svg width="12" height="13" viewBox="0 0 12 13" fill="none" xmlns="http://www.w3.org/2000/svg">
<path d="M7.2 4.1H7.8C7.95913 4.1 8.11174 4.03679 8.22426 3.92426C8.33679 3.81174 8.4 3.65913 8.4 3.5C8.4 3.34087 8.33679 3.18826 8.22426 3.07574C8.11174 2.96321 7.95913 2.9 7.8 2.9H7.2C7.04087 2.9 6.88826 2.96321 6.77574 3.07574C6.66321 3.18826 6.6 3.34087 6.6 3.5C6.6 3.65913 6.66321 3.81174 6.77574 3.92426C6.88826 4.03679 7.04087 4.1 7.2 4.1ZM7.2 6.5H7.8C7.95913 6.5 8.11174 6.43679 8.22426 6.32426C8.33679 6.21174 8.4 6.05913 8.4 5.9C8.4 5.74087 8.33679 5.58826 8.22426 5.47574C8.11174 5.36321 7.95913 5.3 7.8 5.3H7.2C7.04087 5.3 6.88826 5.36321 6.77574 5.47574C6.66321 5.58826 6.6 5.74087 6.6 5.9C6.6 6.05913 6.66321 6.21174 6.77574 6.32426C6.88826 6.43679 7.04087 6.5 7.2 6.5ZM4.2 4.1H4.8C4.95913 4.1 5.11174 4.03679 5.22426 3.92426C5.33679 3.81174 5.4 3.65913 5.4 3.5C5.4 3.34087 5.33679 3.18826 5.22426 3.07574C5.11174 2.96321 4.95913 2.9 4.8 2.9H4.2C4.04087 2.9 3.88826 2.96321 3.77574 3.07574C3.66321 3.18826 3.6 3.34087 3.6 3.5C3.6 3.65913 3.66321 3.81174 3.77574 3.92426C3.88826 4.03679 4.04087 4.1 4.2 4.1ZM4.2 6.5H4.8C4.95913 6.5 5.11174 6.43679 5.22426 6.32426C5.33679 6.21174 5.4 6.05913 5.4 5.9C5.4 5.74087 5.33679 5.58826 5.22426 5.47574C5.11174 5.36321 4.95913 5.3 4.8 5.3H4.2C4.04087 5.3 3.88826 5.36321 3.77574 5.47574C3.66321 5.58826 3.6 5.74087 3.6 5.9C3.6 6.05913 3.66321 6.21174 3.77574 6.32426C3.88826 6.43679 4.04087 6.5 4.2 6.5ZM11.4 11.3H10.8V1.1C10.8 0.94087 10.7368 0.788258 10.6243 0.675736C10.5117 0.563214 10.3591 0.5 10.2 0.5H1.8C1.64087 0.5 1.48826 0.563214 1.37574 0.675736C1.26321 0.788258 1.2 0.94087 1.2 1.1V11.3H0.6C0.44087 11.3 0.288258 11.3632 0.175736 11.4757C0.0632141 11.5883 0 11.7409 0 11.9C0 12.0591 0.0632141 12.2117 0.175736 12.3243C0.288258 12.4368 0.44087 12.5 0.6 12.5H11.4C11.5591 12.5 11.7117 12.4368 11.8243 12.3243C11.9368 12.2117 12 12.0591 12 11.9C12 11.7409 11.9368 11.5883 11.8243 11.4757C11.7117 11.3632 11.5591 11.3 11.4 11.3ZM6.6 11.3H5.4V8.9H6.6V11.3ZM9.6 11.3H7.8V8.3C7.8 8.14087 7.73679 7.98826 7.62426 7.87574C7.51174 7.76321 7.35913 7.7 7.2 7.7H4.8C4.64087 7.7 4.48826 7.76321 4.37574 7.87574C4.26321 7.98826 4.2 8.14087 4.2 8.3V11.3H2.4V1.7H9.6V11.3Z" fill="#777E91"/>
</svg>
