<svg width="17" height="17" viewBox="0 0 17 17" fill="none" xmlns="http://www.w3.org/2000/svg">
<path d="M10.9876 9.06746C11.777 8.45074 12.3532 7.60504 12.636 6.64801C12.9188 5.69097 12.8942 4.6702 12.5656 3.72771C12.237 2.78521 11.6207 1.96786 10.8024 1.38937C9.98423 0.810873 9.00478 0.5 8.00035 0.5C6.99592 0.5 6.01646 0.810873 5.19824 1.38937C4.38003 1.96786 3.76374 2.78521 3.43512 3.72771C3.10649 4.6702 3.08188 5.69097 3.3647 6.64801C3.64752 7.60504 4.22371 8.45074 5.01311 9.06746C3.66046 9.60558 2.48023 10.4981 1.59823 11.6499C0.716236 12.8017 0.165542 14.1696 0.00485675 15.6077C-0.00677448 15.7127 0.00253503 15.8189 0.0322535 15.9204C0.061972 16.0218 0.111518 16.1164 0.178061 16.1988C0.312453 16.3652 0.507923 16.4718 0.721472 16.4952C0.93502 16.5185 1.14915 16.4566 1.31677 16.3232C1.48438 16.1897 1.59174 15.9956 1.61523 15.7836C1.79203 14.2206 2.54255 12.7772 3.72338 11.729C4.90421 10.6807 6.43257 10.1013 8.01645 10.1013C9.60033 10.1013 11.1287 10.6807 12.3095 11.729C13.4904 12.7772 14.2409 14.2206 14.4177 15.7836C14.4396 15.98 14.534 16.1615 14.6827 16.2929C14.8314 16.4243 15.0238 16.4964 15.2229 16.4952H15.3114C15.5225 16.4711 15.7154 16.3651 15.8481 16.2003C15.9809 16.0356 16.0426 15.8254 16.02 15.6157C15.8585 14.1735 15.3049 12.8021 14.4184 11.6485C13.5318 10.495 12.3459 9.60273 10.9876 9.06746ZM8.00035 8.49978C7.36334 8.49978 6.74065 8.31222 6.211 7.9608C5.68135 7.60938 5.26854 7.1099 5.02477 6.52551C4.781 5.94112 4.71722 5.29808 4.84149 4.6777C4.96576 4.05732 5.27251 3.48746 5.72294 3.04019C6.17337 2.59292 6.74725 2.28833 7.37201 2.16492C7.99677 2.04152 8.64436 2.10486 9.23287 2.34692C9.82138 2.58898 10.3244 2.99889 10.6783 3.52483C11.0322 4.05076 11.2211 4.66909 11.2211 5.30163C11.2211 6.14983 10.8818 6.9633 10.2778 7.56307C9.67375 8.16284 8.85454 8.49978 8.00035 8.49978Z" fill="#777E90"/>
</svg>
