<svg width="28" height="28" viewBox="0 0 28 28" fill="none" xmlns="http://www.w3.org/2000/svg">
<path d="M15.4942 0.406965C14.5629 -0.13355 13.4359 -0.135776 12.5027 0.401057L1.63139 6.65482C0.626062 7.23314 0.000136775 8.34728 0.000121361 9.55847L2.85831e-10 19.0949C-1.6096e-05 20.3597 0.681979 21.5136 1.75651 22.0668L3.2939 22.8583C3.67153 21.9006 4.12879 20.9683 4.68008 20.1094C7.74439 15.3356 9.9014 13.7926 11.9094 12.3797C12.0595 12.2741 12.0648 12.043 11.9198 11.9296L7.26584 8.28767C7.19154 8.22953 7.19659 8.11022 7.2755 8.05934L8.68664 7.14955C8.75846 7.10325 8.847 7.09655 8.92431 7.13157L11.98 8.51564C12.0589 8.55135 12.1493 8.54364 12.2217 8.49504L13.2969 7.77342C13.3581 7.73233 13.4393 7.75216 13.4773 7.8175L14.1169 8.91683C14.1475 8.9693 14.1414 9.03685 14.102 9.08222L13.9904 9.21073C13.9292 9.28121 13.953 9.39462 14.0365 9.43117L15.4607 10.054C15.5057 10.0736 15.557 10.065 15.595 10.033C16.2183 9.50791 17.7848 8.61628 19.7015 8.71327C19.8564 8.72111 19.9629 8.87577 19.9087 9.02947C19.6277 9.82568 18.7347 11.228 16.7382 12.2331C16.6972 12.2537 16.6683 12.2956 16.6633 12.3434L16.5028 13.8872C16.4943 13.9688 16.5546 14.04 16.6321 14.04H16.8172C16.8652 14.04 16.9093 14.068 16.9319 14.1127L17.4862 15.2087C17.5186 15.2728 17.4984 15.3524 17.4401 15.3907L16.2765 16.1552C16.2432 16.1771 16.2209 16.2138 16.216 16.255L15.7886 19.8395C15.7832 19.8848 15.757 19.9243 15.7186 19.945L14.1454 20.7934C14.0625 20.8381 13.9633 20.7789 13.9566 20.6806L13.5288 14.4313C13.5223 14.3369 13.4306 14.2773 13.3499 14.3179C11.8012 15.0965 8.90455 17.5473 8.50151 21.8363C8.37065 23.2287 8.45004 24.4974 8.68512 25.6339L12.6346 27.6672C13.4966 28.1109 14.5034 28.1109 15.3654 27.6672L26.2435 22.0668C27.318 21.5136 28 20.3597 28 19.0949V9.62203C28 8.41524 27.3786 7.30441 26.379 6.72424L15.4942 0.406965Z" fill="#316BFF"/>
</svg>
